<?xml version="1.0" encoding="UTF-8"?>
<svg version="1.1" viewBox="0 0 16 16" xmlns="http://www.w3.org/2000/svg" xmlns:cc="http://creativecommons.org/ns#" xmlns:dc="http://purl.org/dc/elements/1.1/" xmlns:rdf="http://www.w3.org/1999/02/22-rdf-syntax-ns#">
<metadata>
<rdf:RDF>
<cc:Work rdf:about="">
<dc:format>image/svg+xml</dc:format>
<dc:type rdf:resource="http://purl.org/dc/dcmitype/StillImage"/>
<dc:title>Gnome Symbolic Icon Theme</dc:title>
</cc:Work>
</rdf:RDF>
</metadata>
<title>Gnome Symbolic Icon Theme</title>
<path d="m4 1c-0.554 0-1 0.446-1 1v1.9954h-1c-0.554 0-1 0.446-1 1v1c0 0.554 0.44633 0.98082 1 1h1v7.0046c0 0.554 0.446 1 1 1s1-0.446 1-1v-7.0046h1c0.554 0 1-0.446 1-1v-1c0-0.554-0.446-1-1-1h-1v-1.9954c0-0.554-0.446-1-1-1zm-1.5 3.9954h3c0.277 0 0.5 0.223 0.5 0.5s-0.223 0.5-0.5 0.5h-3c-0.277 0-0.5-0.223-0.5-0.5s0.223-0.5 0.5-0.5z" fill="#bebebe"/>
<path d="m12 1c-0.554 0-1 0.446-1 1v4.0046h-1c-0.554 0-1 0.446-1 1v1c0 0.554 0.446 1 1 1h1v4.9954c0 0.554 0.446 1 1 1s1-0.446 1-1v-4.9954h1c0.554 0 1-0.446 1-1v-1c0-0.554-0.446-1-1-1h-1v-4.0046c0-0.554-0.446-1-1-1zm-1.5 6.0046h3c0.277 0 0.5 0.223 0.5 0.5s-0.223 0.5-0.5 0.5h-3c-0.277 0-0.5-0.223-0.5-0.5s0.223-0.5 0.5-0.5z" fill="#bebebe"/>
</svg>

