<?xml version="1.0" encoding="UTF-8" standalone="no"?>
<svg
   xmlns:dc="http://purl.org/dc/elements/1.1/"
   xmlns:cc="http://creativecommons.org/ns#"
   xmlns:rdf="http://www.w3.org/1999/02/22-rdf-syntax-ns#"
   xmlns:svg="http://www.w3.org/2000/svg"
   xmlns="http://www.w3.org/2000/svg"
   xmlns:sodipodi="http://sodipodi.sourceforge.net/DTD/sodipodi-0.dtd"
   xmlns:inkscape="http://www.inkscape.org/namespaces/inkscape"
   version="1.1"
   viewBox="0 0 16 16"
   id="svg12"
   sodipodi:docname="balss-controls-symbolic.svg"
   inkscape:version="0.92.2 2405546, 2018-03-11">
  <defs
     id="defs16" />
  <sodipodi:namedview
     pagecolor="#ffffff"
     bordercolor="#666666"
     borderopacity="1"
     objecttolerance="10"
     gridtolerance="10"
     guidetolerance="10"
     inkscape:pageopacity="0"
     inkscape:pageshadow="2"
     inkscape:window-width="1420"
     inkscape:window-height="892"
     id="namedview14"
     showgrid="true"
     inkscape:zoom="11.737198"
     inkscape:cx="-4.6021613"
     inkscape:cy="8.1795925"
     inkscape:window-x="0"
     inkscape:window-y="27"
     inkscape:window-maximized="0"
     inkscape:current-layer="svg12">
    <inkscape:grid
       type="xygrid"
       id="grid4545" />
  </sodipodi:namedview>
  <metadata
     id="metadata2">
    <rdf:RDF>
      <cc:Work
         rdf:about="">
        <dc:format>image/svg+xml</dc:format>
        <dc:type
           rdf:resource="http://purl.org/dc/dcmitype/StillImage" />
        <dc:title>Gnome Symbolic Icon Theme</dc:title>
      </cc:Work>
    </rdf:RDF>
  </metadata>
  <title
     id="title4">Gnome Symbolic Icon Theme</title>
  <path
     style="opacity:1;fill:#bebebe;fill-opacity:1;stroke:none;stroke-opacity:1"
     d="M 4,1 C 3.446,1 3,1.446 3,2 V 3.9953983 H 2 c -0.554,0 -1,0.446 -1,1 v 1 c 0,0.554 0.4463321,0.9808201 1,1 H 3 V 14 c 0,0.554 0.446,1 1,1 0.554,0 1,-0.446 1,-1 V 6.9953983 h 1 c 0.554,0 1,-0.446 1,-1 v -1 c 0,-0.554 -0.446,-1 -1,-1 H 5 V 2 C 5,1.446 4.554,1 4,1 Z M 2.5,4.9953983 h 3 c 0.277,0 0.5,0.223 0.5,0.5 0,0.277 -0.223,0.5 -0.5,0.5 h -3 c -0.277,0 -0.5,-0.223 -0.5,-0.5 0,-0.277 0.223,-0.5 0.5,-0.5 z"
     id="rect5370"
     inkscape:connector-curvature="0"
     sodipodi:nodetypes="sscsssscssscsssscsssssssss" />
  <path
     inkscape:connector-curvature="0"
     id="path5380"
     d="m 12,1 c -0.554,0 -1,0.446 -1,1 v 4.0046017 h -1 c -0.554,0 -1,0.446 -1,1 v 1 c 0,0.554 0.446,1 1,1 h 1 V 14 c 0,0.554 0.446,1 1,1 0.554,0 1,-0.446 1,-1 V 9.0046017 h 1 c 0.554,0 1,-0.446 1,-1 v -1 c 0,-0.554 -0.446,-1 -1,-1 H 13 V 2 C 13,1.446 12.554,1 12,1 Z m -1.5,6.0046017 h 3 c 0.277,0 0.5,0.223 0.5,0.5 0,0.277 -0.223,0.5 -0.5,0.5 h -3 c -0.277,0 -0.5,-0.223 -0.5,-0.5 0,-0.277 0.223,-0.5 0.5,-0.5 z"
     style="opacity:1;fill:#bebebe;fill-opacity:1;stroke:none;stroke-opacity:1"
     sodipodi:nodetypes="sscsssscssscsssscsssssssss" />
</svg>
