<?xml version="1.0" encoding="UTF-8"?>
<svg version="1.1" viewBox="0 0 16 16" xmlns="http://www.w3.org/2000/svg" xmlns:cc="http://creativecommons.org/ns#" xmlns:dc="http://purl.org/dc/elements/1.1/" xmlns:rdf="http://www.w3.org/1999/02/22-rdf-syntax-ns#">
<metadata>
<rdf:RDF>
<cc:Work rdf:about="">
<dc:format>image/svg+xml</dc:format>
<dc:type rdf:resource="http://purl.org/dc/dcmitype/StillImage"/>
<dc:title>Gnome Symbolic Icon Theme</dc:title>
</cc:Work>
</rdf:RDF>
</metadata>
<title>Gnome Symbolic Icon Theme</title>
<g transform="translate(-621.03 -301.03)" fill="#bebebe">
<path transform="translate(621.03 301.03)" d="m7.9688 2.9883a8 8 0 0 0 -8 8 8 8 0 0 0 0.26562 2h2.084a6 6 0 0 1 -0.34961 -2 6 6 0 0 1 6 -6 6 6 0 0 1 1.8906 0.3125l1.8359-1.377a8 8 0 0 0 -3.7266 -0.93555zm7.0508 4.2461l-1.377 1.8359a6 6 0 0 1 0.32617 1.918 6 6 0 0 1 -0.35156 2h2.0918a8 8 0 0 0 0.25977 -2 8 8 0 0 0 -0.94922 -3.7539z"/>
<path d="m637 304.02c-3.0987 2.1679-6.1771 4.2702-9.2617 6.4551-0.47646 0.32471-0.73749 0.96525-0.73828 1.5449 0 1.1046 0.89543 2 2 2 0.84397-9.3e-4 1.4871-0.57452 1.9238-1.291z"/>
</g>
</svg>

