<?xml version="1.0" encoding="UTF-8"?>
<svg width="16" height="16" version="1.1" viewBox="0 0 4.2333333 4.2333335">
<defs>
<linearGradient id="c" x1="16" x2="18" y1="8" y2="8" gradientTransform="matrix(.26458 0 0 .26458 -4.2333 -2.5e-8)" gradientUnits="userSpaceOnUse">
<stop stop-color="#fff" offset="0"/>
<stop stop-color="#fff" stop-opacity="0" offset="1"/>
</linearGradient>
<linearGradient id="b" x1="29" x2="21" y1="-10" y2="11" gradientTransform="matrix(.26458 0 0 .26458 -4.2333 -2.5e-8)" gradientUnits="userSpaceOnUse">
<stop stop-color="#fff" offset="0"/>
<stop stop-color="#fff" stop-opacity="0" offset="1"/>
</linearGradient>
<linearGradient id="a" x1="1.5875" x2="1.5875" y1="3.175" y2="3.7042" gradientUnits="userSpaceOnUse">
<stop offset="0"/>
<stop stop-opacity="0" offset="1"/>
</linearGradient>
</defs>
<rect x=".52917" y=".79375" width="3.175" height="2.9104" fill="#fff"/>
<path d="m0.79375 0.26458c-0.29316 0-0.52917 0.23601-0.52917 0.52917v2.6458c0 0.29316 0.23601 0.52917 0.52917 0.52917h2.6458c0.29144 0 0.52917-0.22675 0.52917-0.52917v-2.3812c0-0.14658-0.118-0.26458-0.26458-0.26458v2.6458c-2.89e-5 0.16891-0.118 0.26458-0.26458 0.26458h-2.6458c-0.14658 0-0.26458-0.118-0.26458-0.26458 0-0.14658 0.118-0.26458 0.26458-0.26458h2.1167c0.30501 0 0.52917-0.23329 0.52917-0.52917v-1.8521c0-0.30869-0.22631-0.52917-0.52917-0.52917zm0.79375 0.52917 1.5875 0.92604-1.5875 0.92604z" fill="#00aad4" stroke-width=".26458"/>
<path d="m0.79375 0.26458c-0.29316 0-0.52917 0.23601-0.52917 0.52917v2.6458c0 0.29316 0.23601 0.52917 0.52917 0.52917v-0.26458c-0.14658 0-0.26458-0.118-0.26458-0.26458s0.118-0.26458 0.26458-0.26458z" fill="#500" stroke-width=".26458"/>
<path d="m0.79375 0.26458c-0.29316 0-0.52917 0.23601-0.52917 0.52917v2.6458c0 0.29316 0.23601 0.52917 0.52917 0.52917v-0.26458c-0.14658 0-0.26458-0.118-0.26458-0.26458s0.118-0.26458 0.26458-0.26458z" fill="url(#c)" stroke-width=".26458"/>
<path d="m0.79375 0.26458v2.9104h2.1167c0.30501 0 0.52917-0.23329 0.52917-0.52917v-1.8521c0-0.30869-0.22631-0.52917-0.52917-0.52917zm0.79375 0.52917 1.5875 0.92604-1.5875 0.92604z" fill="url(#b)" stroke-width=".26458"/>
<path d="m1.0583 3.4396 0.26458 0.79375 0.52917-0.26458 0.52917 0.26458c0-0.79375-0.26458-0.79375-0.26458-0.79375z" fill-opacity=".32157"/>
<path d="m1.0583 3.4396v0.79375l0.52917-0.26458 0.52917 0.26458v-0.79375z" fill="#c83737"/>
<path d="m1.0583 3.4396v0.79375l0.52917-0.26458 0.52917 0.26458v-0.79375z" fill="url(#a)"/>
</svg>

