<?xml version="1.0" encoding="UTF-8"?>
<svg width="128" height="128" version="1.1" viewBox="0 0 33.866667 33.866667">
<defs>
<linearGradient id="m" x1="1.0583" x2="2.6458" y1="289.06" y2="289.06" gradientTransform="matrix(2.0879 0 0 2.0879 -.54337 -585.79)" gradientUnits="userSpaceOnUse">
<stop offset="0"/>
<stop stop-color="#666" stop-opacity="0" offset="1"/>
</linearGradient>
<linearGradient id="p" x2="9" y1="30" y2="30" gradientTransform="matrix(.55241 0 0 .55241 -.54337 -1.0382)" gradientUnits="userSpaceOnUse">
<stop stop-color="#ececec" offset="0"/>
<stop stop-color="#ececec" stop-opacity="0" offset="1"/>
</linearGradient>
<linearGradient id="q" x1="17.198" x2="3.9688" y1="267.9" y2="293.03" gradientTransform="matrix(2.0879 0 0 2.0879 -.5434 -586.34)" gradientUnits="userSpaceOnUse">
<stop stop-color="#f2f2f2" offset="0"/>
<stop stop-color="#f2f2f2" stop-opacity="0" offset="1"/>
</linearGradient>
<linearGradient id="r" x1="34.396" x2="6.6146" y1="299.65" y2="286.42" gradientTransform="matrix(2.0879 0 0 2.0879 -.54399 -585.78)" gradientUnits="userSpaceOnUse">
<stop stop-color="#808080" offset="0"/>
<stop stop-color="#808080" stop-opacity="0" offset="1"/>
</linearGradient>
<linearGradient id="s" x1="8.7312" x2="7.6729" y1="284.3" y2="286.15" gradientTransform="matrix(2.0879 0 0 2.0879 -1.0958 -585.79)" gradientUnits="userSpaceOnUse">
<stop offset="0"/>
<stop stop-color="#999" stop-opacity="0" offset="1"/>
</linearGradient>
<filter id="l" x="-.055693" y="-.054716" width="1.1114" height="1.1094" color-interpolation-filters="sRGB">
<feGaussianBlur stdDeviation="0.34382604"/>
</filter>
<filter id="n" x="-.023294" y="-.02475" width="1.0466" height="1.0495" color-interpolation-filters="sRGB">
<feGaussianBlur stdDeviation="0.13096876"/>
</filter>
<linearGradient id="j" x1="4.7625" x2="4.7625" y1="14.817" y2="15.346" gradientTransform="matrix(1.3921 0 0 1.875 .31677 2.1166)" gradientUnits="userSpaceOnUse">
<stop stop-opacity=".5" offset="0"/>
<stop stop-opacity="0" offset="1"/>
</linearGradient>
<linearGradient id="i" x1="4.7625" x2="4.7625" y1="15.081" y2="16.14" gradientTransform="matrix(1.3921 0 0 1.875 .31677 2.1167)" gradientUnits="userSpaceOnUse">
<stop stop-color="#fff" offset="0"/>
<stop stop-color="#fff" stop-opacity="0" offset="1"/>
</linearGradient>
<linearGradient id="b" x1="4.7625" x2="4.7625" y1="15.61" y2="14.817" gradientTransform="matrix(1.3921 0 0 1.875 .31677 2.1166)" gradientUnits="userSpaceOnUse">
<stop stop-color="#fff" offset="0"/>
<stop stop-color="#fff" stop-opacity="0" offset="1"/>
</linearGradient>
<filter id="o" x="-.027874" y="-.021071" width="1.0557" height="1.0421" color-interpolation-filters="sRGB">
<feGaussianBlur stdDeviation="0.018322095"/>
</filter>
<radialGradient id="a" cx="5.7366" cy="12.568" r="2.3813" gradientTransform="matrix(5.1037 3.127e-7 0 .11599 -14.906 28.44)" gradientUnits="userSpaceOnUse">
<stop offset="0"/>
<stop stop-opacity="0" offset="1"/>
</radialGradient>
<linearGradient id="k" x1="7.9375" x2="14.552" y1="15.346" y2="15.346" gradientUnits="userSpaceOnUse">
<stop offset="0"/>
<stop stop-opacity="0" offset="1"/>
</linearGradient>
</defs>
<path transform="matrix(2.1242 0 0 1.9006 -1.1205 -529.82)" d="m1.0632 279.38 14.547 1.4803c0.14598 0.0149 0.26458 0.11801 0.26458 0.26459v14.552c0 0.14658-0.27383 0.40971-0.42041 0.40971h-13.976c-0.14658 0-0.42041-0.26313-0.42041-0.40971v-14.552c0-0.14658-0.1411-1.7598 0.00488-1.7449z" filter="url(#l)" opacity=".467"/>
<rect x="1.6662" y="3.3672" width="30.936" height="28.725" ry="1.6573" fill="#00aad4" stroke-width="2.0879"/>
<rect x="1.6656" y="3.3819" width="30.936" height="28.725" ry="1.6573" fill="url(#r)" stroke-width="2.0879"/>
<path d="m3.3236 3.3672c-0.91815 0-1.6573 0.73911-1.6573 1.6573v25.412c0 0.91815 0.73911 1.6573 1.6573 1.6573h2.7621l-1.1048-28.725z" fill="#500" stroke-width="2.0879"/>
<path d="m3.3236 3.3672c-0.91815 0-1.6573 0.73911-1.6573 1.6573v25.412c0 0.91815 0.73911 1.6573 1.6573 1.6573h5.5241v-28.725z" fill="url(#m)" stroke-width="2.0879"/>
<rect x="2.2187" y="2.8244" width="29.279" height="28.174" ry="1.1048" fill="#ececec" stroke-width="2.0879"/>
<rect x="3.876" y="29.345" width="24.859" height="1.1048" fill="url(#a)" opacity=".322"/>
<rect x="2.2187" y="2.8244" width="29.279" height="28.174" ry="1.1048" fill-opacity="0" stroke-width="2.0879"/>
<path transform="matrix(2.0879 0 0 2.0879 -.54337 -36.393)" d="m14.864 19.015-0.04705 11.677c-0.0018 0.43973-0.35402 0.79538-0.79375 0.79375l-12.73-0.047053c-0.040063-3.1829 0.029686-12.388 0.029686-12.388z" filter="url(#n)" opacity=".5"/>
<path d="m3.3236 0.61123c-0.91813 0-1.6573 0.73911-1.6573 1.6573v28.174c0-0.91813 0.73916-1.6573 1.6573-1.6573h25.412c0.91813 0 1.6573-0.73913 1.6573-1.6573v-24.858c0-0.91815-0.73911-1.6573-1.6573-1.6573z" fill="#00aad4" stroke-width="2.0879"/>
<path d="m13.267 8.353v13.258l11.601-6.6291z" fill="#fff" stroke-width="2.0879"/>
<path d="m3.3236 0.066635c-0.91813 0-1.6573 0.73911-1.6573 1.6573v28.174c0-0.91813 0.73916-1.6573 1.6573-1.6573h25.412c0.91813 0 1.6573-0.73914 1.6573-1.6573v-24.858c0-0.91815-0.73911-1.6573-1.6573-1.6573z" fill="url(#q)" stroke-width="2.0879"/>
<path d="m3.3235 0.61903c-0.91811 0-1.6572 0.73913-1.6572 1.6572v28.173c0-0.91811 0.73913-1.6572 1.6572-1.6572h2.2097v-28.173z" fill="#500" stroke-width=".55241"/>
<path d="m3.3236 0.61123c-0.91815 0-1.6573 0.73911-1.6573 1.6573v28.174c0-0.91813 0.73916-1.6573 1.6573-1.6573h1.1048v-28.174z" fill="url(#p)" stroke-width="2.0879"/>
<path d="m13.267 8.353v13.258l11.601-6.6291z" fill="url(#s)" stroke-width="2.0879"/>
<path d="m13.267 8.353v13.258l11.601-6.6291z" fill="url(#k)" stroke-width="2.0879"/>
<path transform="matrix(1.3921 0 0 1.875 -1.5249 -27.153)" d="m5.7152 31.131-0.15899 1.4123 1.3229-0.79375 1.3229 0.79375c0-1.8521-0.26458-2.1167-0.26458-2.1167z" filter="url(#o)" opacity=".322"/>
<path d="m5.8417 29.898v3.9688l1.8416-1.4883 1.8416 1.4883v-3.9688z" fill="#c83737"/>
<path d="m5.8417 29.898v3.9688l1.8416-1.4883 1.8416 1.4883v-3.9688z" fill="url(#j)"/>
<path d="m5.8417 30.89v2.9766l1.105-1.4883 2.5783 1.4883v-2.9766z" fill="url(#i)" opacity=".5"/>
<rect x="5.8417" y="29.898" width="3.6833" height=".99219" ry="0" fill="url(#b)" opacity=".5"/>
</svg>

