<?xml version="1.0" encoding="UTF-8"?>
<svg width="24" height="24" version="1.1" viewBox="0 0 6.35 6.35">
<defs>
<linearGradient id="e" x1="41" x2="21" y1="-29" y2="11" gradientTransform="matrix(.26458 0 0 .26458 -4.2333 2.1167)" gradientUnits="userSpaceOnUse">
<stop stop-color="#fff" offset="0"/>
<stop stop-color="#fff" stop-opacity="0" offset="1"/>
</linearGradient>
<linearGradient id="f" x1="1.5875" x2="1.5875" y1="3.175" y2="3.7042" gradientTransform="translate(.26458 2.1167)" gradientUnits="userSpaceOnUse">
<stop offset="0"/>
<stop stop-opacity="0" offset="1"/>
</linearGradient>
<linearGradient id="g" x2="2.4606" y1="12" y2="12" gradientUnits="userSpaceOnUse">
<stop stop-color="#fff" offset="0"/>
<stop stop-color="#fff" stop-opacity="0" offset="1"/>
</linearGradient>
<linearGradient id="d" x1="3.9688" x2="3.4396" y1="1.5875" y2="2.3812" gradientUnits="userSpaceOnUse">
<stop offset="0"/>
<stop stop-opacity="0" offset="1"/>
</linearGradient>
</defs>
<rect x=".52917" y="1.0583" width="5.2917" height="4.7625" fill="#fff"/>
<path d="m0.79375 0.26458c-0.29316 0-0.52917 0.23601-0.52917 0.52917v4.7625c0 0.29316 0.23601 0.52917 0.52917 0.52917h4.7625c0.29144 0 0.52917-0.22675 0.52917-0.52917v-4.2333c0-0.14658-0.118-0.26458-0.26458-0.26458v4.4979c-2.89e-5 0.16891-0.118 0.26458-0.26458 0.26458h-4.7625c-0.14658 0-0.26458-0.118-0.26458-0.26458s0.118-0.26458 0.26458-0.26458h4.2333c0.30501 0 0.52917-0.23329 0.52917-0.52917v-3.9688c0-0.30869-0.22631-0.52917-0.52917-0.52917zm1.5875 1.0583 2.3812 1.4559-2.3812 1.4545z" fill="#00aad4" stroke-width=".26458"/>
<path d="m1.0583 0.26458v5.0271l3.9688 1e-7c0.30501 0 0.52917-0.23329 0.52917-0.52917v-3.9688c0-0.30869-0.22631-0.52917-0.52917-0.52917zm1.323 1.0583 2.3812 1.4559-2.3812 1.4545z" fill="url(#e)" stroke-width=".26458"/>
<path d="m1.3229 5.5562 0.26458 0.79375 0.52917-0.26458 0.52917 0.26458c0-0.79375-0.26458-0.79375-0.26458-0.79375z" fill-opacity=".32157"/>
<path d="m1.3229 5.5562v0.79375l0.52917-0.26458 0.52917 0.26458v-0.79375z" fill="#c83737"/>
<path d="m1.3229 5.5562v0.79375l0.52917-0.26458 0.52917 0.26458v-0.79375z" fill="url(#f)"/>
<path transform="scale(.26458)" d="m3 1c-1.108 0-2 0.892-2 2v18c0 1.108 0.892 2 2 2h1v-1h-1c-0.554 0-1-0.446-1-1s0.446-1 1-1h1v-19h-1z" fill="#500"/>
<path transform="scale(.26458)" d="m3 1c-1.108 0-2 0.892-2 2v18c0 1.108 0.892 2 2 2h1v-1h-1c-0.554 0-1-0.446-1-1s0.446-1 1-1h1v-19h-1z" fill="url(#g)"/>
<path d="m2.3813 1.3229 2.3812 1.4559-2.3812 1.4545z" fill="url(#d)"/>
</svg>

