<?xml version="1.0" encoding="UTF-8"?>
<svg width="32" height="32" version="1.1" viewBox="0 0 8.46667 8.46667">
<defs>
<linearGradient id="g" x1="45.001" x2="21" y1="-43.001" y2="11" gradientTransform="matrix(.26458 0 0 .26458 -3.9688 3.9688)" gradientUnits="userSpaceOnUse">
<stop stop-color="#fff" offset="0"/>
<stop stop-color="#fff" stop-opacity="0" offset="1"/>
</linearGradient>
<linearGradient id="h" x1="1.5875" x2="1.5875" y1="3.175" y2="3.7042" gradientTransform="translate(.79376 3.9688)" gradientUnits="userSpaceOnUse">
<stop offset="0"/>
<stop stop-opacity="0" offset="1"/>
</linearGradient>
<linearGradient id="i" x2="2.4606" y1="12" y2="12" gradientTransform="matrix(.26458 0 0 .26458 -1.5875 1.5876)" gradientUnits="userSpaceOnUse">
<stop stop-color="#fff" offset="0"/>
<stop stop-color="#fff" stop-opacity="0" offset="1"/>
</linearGradient>
<linearGradient id="d" x1="1" x2="4" y1="16" y2="16" gradientUnits="userSpaceOnUse">
<stop stop-color="#fff" offset="0"/>
<stop stop-color="#fff" stop-opacity="0" offset="1"/>
</linearGradient>
<filter id="f" x="-.034071" y="-.03816" width="1.0681" height="1.0763" color-interpolation-filters="sRGB">
<feGaussianBlur stdDeviation="0.10517187"/>
</filter>
<linearGradient id="e" x1="5.5563" x2="4.6457" y1="2.1167" y2="3.7042" gradientUnits="userSpaceOnUse">
<stop offset="0"/>
<stop stop-opacity="0" offset="1"/>
</linearGradient>
</defs>
<path d="m1.3029 0.9093 6.37 0.41361c0.29254 0.018995 0.52917 0.23601 0.52917 0.52917v5.8208c0 0.29316-0.23601 0.5282-0.52917 0.52917l-6.37 0.020957c-0.29316 9.645e-4 -0.52917-0.23601-0.52917-0.52917v-6.2554c0-0.29316 0.23662-0.54816 0.52917-0.52917z" filter="url(#f)" opacity=".5"/>
<rect x=".79375" y="1.3229" width="6.8792" height="6.35" fill="#fff"/>
<path d="m1.0583 0.5292c-0.29316 0-0.52917 0.23601-0.52917 0.52917v6.35c0 0.29316 0.23601 0.52917 0.52917 0.52917h6.35c0.29144 0 0.52917-0.22675 0.52917-0.52917v-5.8208c0-0.14658-0.118-0.26458-0.26458-0.26458v6.0854c-2.89e-5 0.16891-0.118 0.26458-0.26458 0.26458h-6.35c-0.14658 0-0.26458-0.118-0.26458-0.26458s0.118-0.26458 0.26458-0.26458h5.8208c0.30501 0 0.52917-0.23329 0.52917-0.52917v-5.5563c0-0.30869-0.22631-0.52917-0.52917-0.52917zm2.1167 1.5875 2.9104 1.7198-2.9104 1.7197z" fill="#00aad4" stroke-width=".26458"/>
<path d="m1.5875 0.52917v6.6146l5.2916 4.69e-5c0.30501 2.7e-6 0.52917-0.23329 0.52917-0.52917v-5.5563c0-0.30869-0.22631-0.52917-0.52917-0.52917zm1.5875 1.5875 2.9104 1.7198-2.9104 1.7197z" fill="url(#g)" stroke-width=".26458"/>
<path d="m1.8521 7.4083 0.26458 1.0583 0.52917-0.52917 0.52917 0.52917c0-0.79375-0.26458-1.0583-0.26458-1.0583z" fill-opacity=".32157"/>
<path d="m1.8521 7.4083v1.0583l0.52917-0.52917 0.52916 0.52917 6.6e-6 -1.0583z" fill="#c83737"/>
<path d="m1.8521 7.4083v1.0583l0.52917-0.52917 0.52916 0.52917 6.6e-6 -1.0583z" fill="url(#h)"/>
<path d="m-0.79375 1.8521c-0.29315 0-0.52916 0.23601-0.52916 0.52916v4.7624c0 0.29315 0.23601 0.52916 0.52916 0.52916h0.26458v-0.26458h-0.26458c-0.14658 0-0.26458-0.118-0.26458-0.26458s0.118-0.26458 0.26458-0.26458h0.26458v-5.027z" fill="url(#i)" stroke-width=".26458"/>
<path transform="scale(.26458)" d="m4 2c-1.108 0-2 0.89199-2 2v24c0 1.108 0.89199 2 2 2h2v-1h-2c-0.554 0-1-0.446-1-1s0.446-1 1-1h2v-25h-2z" fill="#500" stroke-width=".99999"/>
<path transform="scale(.26458)" d="m4 2c-1.108 0-2 0.89199-2 2v23 0.50407c0-0.79204 1-1.5041 1.4761-1.5041h2.5239v-24z" fill="url(#d)" stroke-width=".99999"/>
<path d="m3.175 2.1167 2.9104 1.7198-2.9104 1.7197z" fill="url(#e)"/>
</svg>

